<?xml version="1.0" standalone="no"?>
<!DOCTYPE svg PUBLIC "-//W3C//DTD SVG 20010904//EN"
 "http://www.w3.org/TR/2001/REC-SVG-20010904/DTD/svg10.dtd">
<svg version="1.0" xmlns="http://www.w3.org/2000/svg"
 width="400.000000pt" height="405.000000pt" viewBox="0 0 614.000000 505.000000"
 preserveAspectRatio="xMidYMid meet">

<g transform="translate(0.000000,505.000000) scale(0.100000,-0.100000)"
fill="#000000" stroke="none">
<path d="M2626 4028 c-9 -12 -16 -27 -16 -33 1 -5 8 3 16 18 8 16 21 26 27 24
32 -10 5 -342 -34 -419 -28 -55 -14 -47 25 15 32 51 111 236 103 244 -2 2 -18
-32 -35 -74 l-32 -78 8 70 c4 39 7 111 7 160 0 90 0 90 -27 93 -18 2 -31 -4
-42 -20z"/>
<path d="M2794 4018 c-10 -13 -12 -17 -4 -10 8 6 22 12 32 12 26 0 24 -45 -8
-171 -31 -121 -47 -156 -104 -224 -33 -39 -28 -36 21 15 40 40 98 120 153 208
48 79 95 146 103 149 31 12 36 -14 15 -77 -40 -118 -83 -179 -191 -273 -56
-49 -101 -90 -101 -93 0 -15 27 3 82 54 35 33 83 73 108 91 25 18 81 71 124
119 44 48 84 89 89 91 17 7 25 -22 15 -53 -25 -73 -71 -133 -144 -186 -41 -30
-74 -56 -74 -58 0 -6 90 48 160 96 64 44 149 87 157 78 9 -8 -18 -83 -34 -99
-28 -24 -209 -114 -302 -150 -56 -21 -78 -33 -64 -35 12 -2 101 31 198 72 97
42 187 76 200 76 28 0 47 -22 39 -44 -6 -17 -51 -32 -252 -86 -70 -20 -119
-37 -113 -43 5 -5 37 0 77 11 180 51 226 62 254 62 27 0 30 -3 30 -30 0 -39
-14 -45 -160 -65 -63 -9 -116 -18 -119 -20 -7 -8 36 -5 145 9 108 13 124 12
124 -9 0 -22 -19 -29 -115 -41 -89 -11 -91 -11 -154 18 -243 109 -370 121
-448 43 l-33 -33 -2 112 c-2 94 -3 99 -5 33 l-4 -77 -42 7 c-23 5 -116 8 -207
7 -149 -1 -174 -3 -255 -28 -356 -106 -610 -371 -681 -710 -23 -112 -19 -282
10 -397 40 -160 124 -306 243 -425 62 -62 191 -155 256 -185 14 -6 24 -16 21
-20 -3 -5 2 -6 10 -3 25 10 20 -14 -29 -131 -25 -59 -44 -109 -42 -111 3 -3
43 54 148 208 3 4 41 -1 85 -13 107 -28 319 -36 429 -16 44 8 83 13 87 10 4
-2 19 -26 34 -53 15 -28 29 -48 31 -46 2 2 -5 27 -17 55 -11 28 -20 53 -20 56
0 2 21 11 48 20 48 16 103 44 89 45 -5 0 -17 -5 -28 -10 -30 -16 -37 16 -10
43 18 18 34 22 90 23 62 0 73 4 117 36 61 45 180 168 221 228 48 71 89 158
118 252 l27 87 48 -35 c61 -44 191 -105 307 -143 107 -36 137 -38 156 -11 14
20 15 19 87 -22 62 -36 83 -43 134 -44 120 -4 130 43 23 110 -16 10 -26 20
-24 23 3 2 63 -12 134 -33 157 -45 239 -50 275 -16 13 12 35 22 49 22 13 0 38
9 56 19 27 17 37 18 70 9 49 -13 132 -3 190 24 47 22 131 94 121 104 -3 3 -43
-3 -89 -12 -65 -13 -115 -15 -228 -11 -216 8 -343 43 -836 227 -143 54 -310
112 -372 130 -70 21 -114 39 -118 49 -3 8 -2 17 4 19 6 2 26 14 46 28 20 13
41 24 48 24 6 0 33 23 59 50 35 37 48 58 48 80 0 16 4 31 9 34 13 8 21 70 22
161 0 160 -5 168 -110 186 -60 11 -60 11 -45 34 9 14 11 25 5 29 -6 4 -5 19 5
41 15 37 11 60 -12 69 -12 5 -11 9 6 26 11 11 20 27 20 35 0 25 -46 48 -81 41
l-32 -6 26 20 c26 20 47 73 47 117 0 19 -3 21 -28 14 -15 -5 -47 -18 -71 -30
-24 -12 -45 -21 -47 -19 -2 2 8 26 21 53 27 52 33 104 13 106 -39 4 -59 -8
-116 -69 l-62 -67 24 55 c33 73 51 143 43 165 -6 13 -14 16 -35 10 -39 -10
-54 -26 -117 -131 -32 -52 -59 -93 -61 -91 -2 2 1 20 7 41 27 97 38 170 28
188 -13 25 -52 23 -75 -4z m-394 -634 c73 -8 75 -11 62 -93 -20 -115 -28 -106
101 -106 101 0 118 -3 170 -27 37 -17 87 -55 133 -100 66 -63 74 -76 74 -108
0 -23 8 -48 21 -64 12 -15 20 -29 18 -31 -4 -3 -96 5 -369 36 -280 32 -294 32
-350 16 -50 -15 -51 -15 -34 4 9 10 37 28 61 40 39 19 55 21 126 15 44 -4 141
-20 214 -36 130 -29 194 -35 242 -21 23 6 23 6 -16 57 -53 66 -97 102 -162
132 -62 28 -171 40 -236 24 -29 -6 -66 -5 -125 6 -69 12 -103 12 -175 4 -82
-10 -103 -18 -244 -89 -85 -43 -156 -82 -158 -88 -2 -6 33 -10 90 -10 87 0 97
-2 181 -42 l88 -41 -53 -16 c-59 -17 -137 -62 -184 -106 -48 -45 -326 -240
-342 -240 -10 0 -13 -9 -11 -27 2 -23 10 -30 41 -37 36 -9 61 -5 138 20 14 5
16 0 9 -35 -4 -22 -5 -43 -2 -46 15 -15 75 -3 97 20 l25 24 0 -24 c0 -14 6
-25 13 -25 15 0 87 47 104 67 10 12 13 11 23 -9 35 -66 104 -87 138 -41 l19
27 41 -32 c57 -46 99 -39 117 18 6 19 8 19 35 5 39 -20 67 -19 87 5 14 15 25
18 54 14 32 -5 39 -3 54 20 20 30 55 34 95 11 33 -19 84 -19 100 0 11 13 15
13 41 0 15 -8 42 -15 59 -15 24 0 30 4 30 22 0 17 3 19 12 10 18 -18 48 -15
48 6 0 24 19 42 45 42 12 0 34 14 50 30 34 36 60 38 92 8 29 -27 29 -60 3
-162 -63 -246 -248 -453 -492 -552 -65 -26 -84 -30 -90 -20 -4 8 -42 112 -84
232 -42 121 -79 222 -83 226 -4 4 -54 -74 -112 -174 -59 -100 -110 -183 -115
-185 -5 -1 -27 38 -48 87 -22 49 -42 87 -46 85 -4 -2 -28 -58 -55 -125 -29
-72 -54 -120 -63 -120 -9 0 -11 7 -7 23 7 20 6 21 -7 4 -12 -17 -17 -15 -76
20 -195 119 -317 273 -377 478 -34 113 -38 279 -11 390 56 225 213 419 427
530 171 88 332 114 549 89z m-561 -724 c-8 -11 -29 -41 -48 -66 -46 -62 -24
-49 25 16 51 68 73 67 76 -2 l1 -53 4 45 c5 48 15 60 51 60 20 0 22 -5 24 -57
1 -37 3 -45 5 -23 6 64 13 80 32 80 19 0 41 -51 71 -167 13 -53 -7 -103 -43
-103 -43 0 -66 35 -68 102 -1 40 -1 41 -8 12 -4 -17 -11 -36 -15 -43 -8 -12
-81 -61 -91 -61 -11 0 -4 57 10 76 31 41 13 33 -26 -13 -51 -59 -57 -63 -92
-63 -27 0 -28 0 -21 50 4 28 4 50 1 50 -2 0 -24 -9 -48 -20 -49 -22 -100 -26
-130 -9 -18 9 -14 14 43 51 35 22 80 54 101 70 39 32 136 88 151 88 5 0 2 -9
-5 -20z m332 -113 c38 -60 69 -114 69 -121 0 -36 -65 -49 -92 -18 -17 18 -61
149 -73 216 -13 68 22 39 96 -77z m109 8 c47 -53 85 -103 85 -113 0 -20 -44
-28 -74 -13 -18 10 -101 144 -121 196 -20 54 26 24 110 -70z m42 75 c41 -12
148 -119 148 -149 0 -26 -26 -44 -52 -37 -20 6 -146 157 -156 186 -5 13 13 13
60 0z m185 -107 c49 -33 53 -38 33 -41 -16 -3 -35 8 -64 37 -51 51 -42 52 31
4z m-118 -598 c60 -104 67 -121 52 -130 -19 -11 -271 -21 -271 -10 0 15 135
265 143 262 4 -1 38 -56 76 -122z m-297 -88 c21 -36 24 -47 13 -47 -9 0 -24
15 -35 33 -21 34 -28 30 -9 -5 11 -20 9 -21 -22 -14 -18 3 -34 8 -36 10 -8 7
42 76 52 73 5 -2 22 -25 37 -50z"/>
<path d="M1961 2059 c-17 -45 -30 -83 -28 -85 2 -2 18 33 36 77 17 45 30 83
28 85 -2 2 -18 -33 -36 -77z"/>
<path d="M2120 1990 c-6 -11 -8 -20 -6 -20 3 0 10 9 16 20 6 11 8 20 6 20 -3
0 -10 -9 -16 -20z"/>
<path d="M1881 2534 c0 -11 3 -14 6 -6 3 7 2 16 -1 19 -3 4 -6 -2 -5 -13z"/>
<path d="M2771 3974 c0 -11 3 -14 6 -6 3 7 2 16 -1 19 -3 4 -6 -2 -5 -13z"/>
<path d="M2602 3955 c0 -16 2 -22 5 -12 2 9 2 23 0 30 -3 6 -5 -1 -5 -18z"/>
<path d="M2761 3934 c0 -11 3 -14 6 -6 3 7 2 16 -1 19 -3 4 -6 -2 -5 -13z"/>
<path d="M2592 3895 c0 -16 2 -22 5 -12 2 9 2 23 0 30 -3 6 -5 -1 -5 -18z"/>
<path d="M2493 3883 c-10 -3 -12 -35 -11 -116 l2 -112 5 105 6 105 20 -30 c18
-26 20 -45 19 -160 -1 -119 0 -127 12 -88 21 70 38 194 27 201 -5 4 -15 21
-22 39 -15 37 -41 62 -58 56z"/>
<path d="M2582 3830 c0 -19 2 -27 5 -17 2 9 2 25 0 35 -3 9 -5 1 -5 -18z"/>
<path d="M2874 3594 c-18 -14 -18 -15 4 -4 12 6 22 13 22 15 0 8 -5 6 -26 -11z"/>
<path d="M2795 3554 c-39 -18 -45 -24 -25 -24 14 1 39 12 55 25 36 30 34 30
-30 -1z"/>
<path d="M3437 1914 c-4 -4 -7 -18 -7 -31 0 -18 5 -23 26 -23 22 0 25 4 22 27
-3 27 -26 41 -41 27z"/>
<path d="M2953 1812 c-13 -2 -32 -15 -44 -30 -17 -22 -20 -37 -16 -77 2 -27 0
-60 -6 -73 -8 -17 -8 -29 1 -43 10 -15 9 -25 -3 -49 -21 -41 -10 -75 30 -94
82 -39 185 5 185 80 0 8 -11 26 -25 39 -18 19 -35 25 -67 25 -61 0 -90 10 -86
28 2 13 14 16 50 13 40 -2 52 2 74 24 22 22 25 33 22 71 -3 37 0 44 14 44 20
0 25 29 6 35 -20 6 -111 11 -135 7z m57 -52 c11 -11 20 -28 20 -37 -1 -49 -69
-73 -90 -32 -15 26 -3 77 18 82 29 8 32 7 52 -13z m24 -216 c21 -8 20 -44 -1
-60 -24 -18 -88 -18 -103 1 -7 8 -10 25 -6 40 6 22 12 25 50 25 25 0 51 -3 60
-6z"/>
<path d="M3232 1800 c-39 -24 -42 -24 -42 -5 0 8 -9 15 -20 15 -20 0 -20 -5
-18 -187 3 -186 3 -188 26 -191 21 -3 22 0 22 63 l0 67 25 -16 c35 -23 68 -20
99 9 33 31 46 64 46 121 0 109 -66 169 -138 124z m72 -52 c9 -12 16 -41 16
-64 0 -91 -39 -133 -90 -95 -21 15 -25 28 -28 77 -2 49 1 63 18 82 27 28 64
28 84 0z"/>
<path d="M3625 1813 c-50 -12 -85 -70 -85 -140 0 -57 26 -113 60 -130 53 -27
141 -8 148 31 3 16 0 18 -19 11 -59 -18 -97 -17 -118 4 -12 12 -21 32 -21 46
0 24 2 24 83 27 l82 3 -2 42 c-2 52 -25 88 -65 102 -17 6 -34 10 -37 10 -3 -1
-15 -4 -26 -6z m48 -44 c27 -14 37 -28 37 -51 0 -15 -9 -18 -60 -18 -53 0 -60
2 -60 19 0 11 12 29 26 40 31 25 29 24 57 10z"/>
<path d="M2683 1799 c-18 -5 -33 -16 -33 -24 0 -11 5 -12 26 -5 36 14 80 12
93 -3 6 -8 14 -27 17 -44 6 -30 6 -30 -44 -35 -73 -7 -102 -29 -102 -77 0 -65
54 -90 120 -56 27 14 30 14 30 0 0 -18 20 -21 21 -2 0 6 0 57 -1 112 0 94 -2
101 -26 123 -27 23 -49 26 -101 11z m107 -160 c0 -34 -41 -79 -71 -79 -30 0
-51 25 -47 55 4 34 36 55 86 55 29 0 32 -3 32 -31z"/>
<path d="M3432 1673 c3 -135 3 -138 26 -141 l23 -3 -3 138 c-3 135 -3 138 -26
141 l-23 3 3 -138z"/>
<path d="M3260 1415 c0 -42 3 -55 15 -55 12 0 15 13 15 55 0 42 -3 55 -15 55
-12 0 -15 -13 -15 -55z"/>
<path d="M3339 1446 c-8 -16 -8 -34 -2 -52 15 -46 28 -37 28 21 0 59 -9 69
-26 31z"/>
<path d="M3398 1415 c-1 -30 -1 -55 3 -55 23 0 37 56 23 94 -12 31 -22 15 -26
-39z"/>
<path d="M3450 1427 c0 -45 13 -67 39 -67 12 0 12 3 3 12 -7 7 -12 31 -12 55
0 32 -4 43 -15 43 -11 0 -15 -11 -15 -43z"/>
<path d="M3533 1425 c0 -27 2 -38 4 -22 2 15 2 37 0 50 -2 12 -4 0 -4 -28z"/>
<path d="M3560 1415 c0 -42 3 -55 15 -55 12 0 15 13 15 55 0 42 -3 55 -15 55
-12 0 -15 -13 -15 -55z"/>
<path d="M3616 1440 c1 -16 2 -41 3 -55 1 -15 7 -25 16 -25 17 0 21 35 5 45
-8 5 -7 11 1 21 13 16 5 44 -13 44 -8 0 -13 -12 -12 -30z"/>
<path d="M3675 1456 c-7 -15 -1 -25 24 -47 21 -17 30 -32 26 -39 -5 -8 -3 -11
6 -8 28 9 22 47 -10 66 -17 9 -32 24 -34 32 -3 12 -6 11 -12 -4z"/>
<path d="M3670 1381 c0 -6 4 -13 10 -16 6 -3 7 1 4 9 -7 18 -14 21 -14 7z"/>
<path d="M4116 1203 c-12 -12 -5 -23 14 -23 11 0 20 4 20 9 0 11 -26 22 -34
14z"/>
<path d="M1332 1133 c-29 -95 -35 -123 -28 -123 4 0 11 11 16 25 7 18 17 25
35 25 17 0 29 -8 37 -25 13 -28 65 -38 55 -10 -4 8 -16 50 -28 95 -19 70 -25
80 -45 80 -19 0 -25 -10 -42 -67z m43 -30 c6 -31 5 -33 -20 -33 -23 0 -25 3
-20 23 4 12 9 30 12 41 7 23 19 10 28 -31z"/>
<path d="M1549 1168 c-1 -18 -2 -55 -3 -83 -1 -39 -5 -50 -18 -53 -15 -3 -18
4 -18 45 0 27 6 55 13 62 10 10 6 12 -18 9 -26 -3 -31 -9 -40 -41 -7 -30 -5
-45 6 -65 13 -23 22 -27 67 -29 l52 -2 0 95 c0 87 -1 94 -20 94 -16 0 -20 -7
-21 -32z"/>
<path d="M2697 1108 c-15 -50 -24 -94 -21 -97 2 -3 7 5 11 17 10 41 83 37 83
-4 0 -8 10 -14 25 -14 29 0 29 0 10 65 -9 28 -20 67 -26 88 -8 29 -15 37 -33
37 -21 0 -26 -10 -49 -92z m43 33 c0 -5 3 -23 6 -40 6 -28 4 -31 -19 -31 -24
0 -25 1 -15 40 6 22 14 40 19 40 5 0 9 -4 9 -9z"/>
<path d="M3620 1105 c0 -95 0 -95 25 -95 22 0 25 4 25 39 0 36 2 39 36 44 47
8 64 23 64 58 0 37 -24 49 -94 49 l-56 0 0 -95z m98 48 c2 -23 -2 -34 -16 -42
-26 -14 -32 -5 -32 41 0 35 2 39 23 36 17 -2 23 -11 25 -35z"/>
<path d="M3950 1105 c0 -88 1 -95 20 -95 15 0 20 7 20 24 0 38 20 42 33 7 8
-22 18 -31 34 -31 28 0 28 -2 4 58 -15 36 -17 52 -8 61 6 6 8 13 5 16 -3 4
-16 -8 -28 -24 -12 -17 -26 -31 -31 -31 -5 0 -9 25 -9 55 0 48 -2 55 -20 55
-19 0 -20 -7 -20 -95z"/>
<path d="M2083 1183 c-7 -2 -13 -11 -13 -19 0 -8 -6 -14 -12 -14 -10 0 -10 -2
-1 -8 6 -4 13 -34 15 -67 3 -54 5 -60 27 -63 13 -2 28 2 35 8 8 9 7 11 -4 8
-12 -2 -16 10 -18 54 -2 47 0 57 15 61 17 4 17 5 1 6 -11 1 -18 9 -18 21 0 20
-5 23 -27 13z"/>
<path d="M4343 1183 c-7 -2 -13 -11 -13 -19 0 -8 -6 -14 -12 -14 -10 0 -10 -2
-1 -8 6 -4 13 -34 15 -67 3 -52 6 -60 24 -63 19 -3 20 1 16 59 -3 45 -1 64 9
70 10 6 11 9 2 9 -7 0 -13 9 -13 20 0 20 -5 23 -27 13z"/>
<path d="M1634 1083 c31 -91 48 -93 76 -8 12 36 20 68 17 71 -2 2 -10 -16 -17
-41 -14 -50 -21 -49 -40 8 -9 29 -17 37 -35 37 l-24 0 23 -67z"/>
<path d="M1767 1132 c-23 -25 -22 -85 1 -105 35 -32 103 -16 101 23 0 10 -4 7
-11 -8 -16 -33 -52 -26 -56 11 -3 25 -1 27 32 27 39 0 45 14 26 51 -17 31 -37
24 -32 -11 3 -23 1 -30 -13 -30 -14 0 -16 7 -13 30 5 35 -10 40 -35 12z"/>
<path d="M1900 1080 c0 -67 1 -70 24 -70 23 0 24 4 28 60 4 75 2 80 -28 80
-23 0 -24 -3 -24 -70z"/>
<path d="M1965 1141 c-3 -6 -1 -11 4 -11 7 0 11 -24 11 -60 0 -58 1 -60 25
-60 26 0 26 1 23 68 -3 64 -4 67 -30 70 -14 2 -29 -2 -33 -7z"/>
<path d="M2162 1083 c3 -63 5 -68 27 -71 13 -2 28 1 34 7 8 8 8 11 -1 11 -8 0
-12 20 -12 60 0 58 -1 60 -25 60 -26 0 -26 -1 -23 -67z"/>
<path d="M2238 1090 c-4 -75 -2 -80 28 -80 23 0 24 3 24 70 0 67 -1 70 -24 70
-23 0 -24 -4 -28 -60z"/>
<path d="M2330 1080 c0 -63 2 -70 20 -70 16 0 19 8 22 57 2 34 8 58 16 61 6 2
12 -4 12 -13 0 -9 6 -15 13 -12 6 2 12 12 12 23 0 16 -8 19 -47 21 l-48 2 0
-69z"/>
<path d="M2473 1142 c-35 -22 -37 -104 -3 -122 41 -22 112 3 93 33 -4 6 -9 2
-14 -11 -10 -27 -35 -28 -49 -3 -17 33 -11 41 30 41 44 0 50 11 24 48 -21 31
-35 27 -27 -8 5 -26 3 -30 -16 -30 -23 0 -29 28 -9 48 9 9 9 12 -2 12 -8 0
-20 -4 -27 -8z"/>
<path d="M2857 1132 c-21 -23 -22 -86 -1 -106 8 -9 30 -15 47 -15 23 1 26 3
10 6 -28 5 -40 58 -25 103 13 35 -4 42 -31 12z"/>
<path d="M2932 1130 c14 -22 24 -19 15 5 -4 8 -11 15 -17 15 -6 0 -6 -7 2 -20z"/>
<path d="M2982 1083 c3 -62 5 -68 26 -71 20 -3 22 1 24 52 0 31 1 62 2 69 1 6
-12 13 -27 15 l-28 3 3 -68z"/>
<path d="M3055 1128 c10 -32 15 -35 25 -18 13 20 7 34 -14 38 -15 3 -17 -1
-11 -20z"/>
<path d="M3114 1125 c-20 -31 -11 -90 16 -105 72 -39 142 40 94 108 -27 39
-39 27 -39 -40 0 -49 -3 -63 -15 -63 -12 0 -15 14 -15 63 0 68 -13 80 -41 37z"/>
<path d="M3276 1134 c-9 -8 -16 -19 -16 -23 0 -12 23 -36 53 -54 34 -22 35
-37 2 -37 -17 0 -28 7 -34 22 -6 16 -10 18 -16 8 -19 -31 63 -54 99 -27 26 19
16 47 -24 75 -19 13 -34 30 -34 38 2 18 -11 18 -30 -2z"/>
<path d="M3346 1136 c3 -9 11 -16 16 -16 13 0 5 23 -10 28 -7 2 -10 -2 -6 -12z"/>
<path d="M3410 1131 c-14 -27 -4 -47 36 -71 36 -21 38 -40 3 -40 -11 0 -23 9
-28 22 -5 15 -10 18 -15 9 -21 -33 59 -56 98 -28 26 19 16 47 -24 75 -19 13
-34 30 -34 38 2 21 -24 17 -36 -5z"/>
<path d="M3485 1134 c9 -9 18 -14 21 -11 9 9 -6 27 -22 27 -13 0 -13 -2 1 -16z"/>
<path d="M3803 1135 c-9 -24 1 -27 15 -5 8 13 8 20 2 20 -6 0 -13 -7 -17 -15z"/>
<path d="M3857 1138 c15 -17 6 -31 -32 -49 -23 -11 -30 -21 -30 -44 l0 -30 68
-2 c52 -1 66 2 58 11 -5 6 -11 36 -13 66 -3 53 -4 55 -32 58 -24 3 -28 1 -19
-10z m13 -72 c0 -28 -24 -53 -35 -36 -4 6 -4 22 -1 36 8 31 36 32 36 0z"/>
<path d="M4100 1080 c0 -68 1 -70 25 -70 24 0 25 2 25 70 0 68 -1 70 -25 70
-24 0 -25 -2 -25 -70z"/>
<path d="M4192 1138 c-22 -22 -12 -47 28 -73 41 -26 45 -45 9 -45 -11 0 -23 9
-28 22 -5 15 -10 18 -15 9 -22 -35 66 -57 99 -25 23 23 15 45 -25 72 -19 13
-34 30 -34 38 2 17 -18 18 -34 2z"/>
<path d="M4264 1135 c8 -8 18 -15 22 -15 3 0 1 7 -6 15 -7 8 -17 15 -22 15 -5
0 -3 -7 6 -15z"/>
<path d="M4427 1143 c-10 -9 -8 -33 2 -33 5 0 11 9 14 20 5 20 -3 26 -16 13z"/>
<path d="M4487 1131 c4 -15 -5 -24 -36 -40 -42 -22 -52 -46 -29 -69 7 -7 19
-12 29 -12 12 0 16 9 15 36 -1 23 4 39 13 42 10 3 12 -4 9 -31 -4 -37 4 -47
40 -47 14 0 16 9 14 57 -4 63 -15 83 -42 83 -13 0 -17 -6 -13 -19z"/>
<path d="M4570 1080 c0 -68 1 -70 25 -70 22 0 24 4 27 58 2 43 7 57 18 57 11
0 16 -14 18 -57 3 -50 6 -58 23 -58 18 0 20 6 17 68 -3 61 -5 67 -26 70 -13 2
-30 -2 -38 -8 -10 -9 -14 -9 -14 -1 0 6 -11 11 -25 11 -24 0 -25 -2 -25 -70z"/>
<path d="M3530 1085 c0 -10 11 -15 35 -15 24 0 35 5 35 15 0 10 -11 15 -35 15
-24 0 -35 -5 -35 -15z"/>
<path d="M2945 1050 c-4 -12 -5 -24 -2 -27 3 -2 8 5 12 17 4 12 5 24 2 27 -3
2 -8 -5 -12 -17z"/>
</g>
</svg>
