<?xml version="1.0" encoding="utf-8"?>
<!-- Generator: Adobe Illustrator 26.1.0, SVG Export Plug-In . SVG Version: 6.00 Build 0)  -->
<svg version="1.1" id="Layer_1" xmlns="http://www.w3.org/2000/svg" xmlns:xlink="http://www.w3.org/1999/xlink" x="0px" y="0px"
	 viewBox="0 0 595.28 841.89" style="enable-background:new 0 0 595.28 841.89;" xml:space="preserve">
<style type="text/css">
	.st0{stroke:#000000;stroke-linecap:square;stroke-miterlimit:10;}
	.st1{fill:#FFFFFF;}
	.st2{fill:none;stroke:#000000;stroke-width:13;stroke-miterlimit:10;}
	.st3{stroke:#000000;stroke-width:0.75;stroke-miterlimit:10;}
	.st4{font-family:'Calibri-Bold';}
	.st5{font-size:90.0606px;}
	.st6{font-size:51px;}
</style>
<path class="st0" d="M136.64,388.09c0,0-6.11,0.27-20.2-9.83c0,0-11.16-4.25-37.74-1.86c0,0,2.13-7.71,23.92-14.62
	c0,0,30.56-22.85,64.84-18.07l20.73,4.52c0,0,51.55-16.48,79.19,33.22c0,0-17.8,5.58-65.37-7.97c0,0-38.27-7.18-40.13,7.97
	c0,0,16.21-8.24,32.69,1.33l86.37,8.24c0,0-8.5-3.72-5.85-22.85c0,0-21.79-40.39-82.38-31.62l5.31-30.29c0,0,6.78-36.92,3.5-56.56
	c-0.19-1.11-0.31-2.23-0.3-3.35c0.03-4.74,0.24-18.16,1.54-25.68c0.32-1.86,2.71-2.35,3.76-0.79c3.8,5.65,5.48,23.12,4.53,58.48
	c0,0,4.03-87.94,19.97-85.3c1.94,0.32,3.39,1.97,3.81,3.89l0.54,2.49c1.25,6.11,0.3,7.81-0.87,13.93
	c-3.24,16.88-10.2,49.23-12.17,52.73l-5.42,9.61c0,0,26.85-41.73,30.96-66.5c0.45-2.73,1.46-5.36,3.15-7.55
	c2.91-3.79,13.04-11.19,13.73,4.69c0,0-6.91,44.38-38.8,69.89c0,0,38.73-34.83,52.52-68.34c1.58-3.83,4.82-6.84,8.89-7.65
	c4.65-0.92,8.9,1.36,3.43,17c0,0-14.88,31.09-55.67,60.19c0,0,47.04-36.67,60.72-53.68c7.41-9.21,11.86-8.97,14.39-6.81
	c2.36,2.01,2.64,5.59,0.94,8.18c-5.75,8.77-24.53,33.92-60.63,51.65c0,0,49.16-28.24,55.41-34.88c5.48-5.83,32.19-9.76,21.26,5.38
	c-3.45,4.78-8.77,6.38-15.65,12.41l-52.78,22.27l55.56-21.79c5.73-2.25,12.04-2.82,18-1.29c5.56,1.43,9.64,4.25,1.84,9.79
	c-2.89,2.06-6.17,3.5-9.6,4.42l-54.64,14.59l53.2-11.62c3.28-0.72,6.74-0.46,9.76,1c2.79,1.36,4.93,3.66,2.3,7.43
	c-2.01,2.87-5.27,4.62-8.75,5.05l-47.95,6.51l38.33-3.59c0,0,18.46-2.96,16.92,2.94c-0.37,1.4-1.69,2.35-3.13,2.52l-36.39,4.14
	c-0.18,0.02-0.17,0.29,0.01,0.28c17.4-0.76,79.86-2.39,60.93,14.3c0,0,10.36,7.57,1,19.33c0,0,8.57,4.98-0.4,14.15
	c0,0,5.58,9.77-2.59,12.16c0,0,5.18,14.75-11.56,17.74c0,0-1.4,10.56-11.76,6.98c0,0-2.59,8.37-11.76,8.17l1.2,6.18
	c0,0,66.37,19.33,121.78,41.66s110.42,27.9,144.3,16.74c0,0,7.18,25.51-53.81,21.92c0,0-11.56,10.76-19.13,4.78
	c0,0,1.2,19.13-53.02,1.2c0,0-25.91-10.36-3.99,4.78c0,0,17.14,21.92-32.29,8.37c0,0-18.73-15.94-17.54-6.38
	c0,0-11.16,15.55-85.3-32.69l-20.33-19.53c0,0-1.99-17.54-19.93,3.59c0,0-10.03-2.86-10.03,3.92c0,6.78-4.12,7.97-7.24,5.38
	s-5.85,0.4-3.99,3.92c1.86,3.52-11.56,0.93-11.56,0.93s-6.51-3.19-7.31-5.18c-0.8-1.99-5.85,5.05-5.85,5.05s-5.85,5.51-23.19-8.64
	c-17.34-14.15-2.46,4.19-2.46,4.19s-2.92,11.69-18.6,4.25c0,0-2.66,13.82-19.4,2.92c0,0-7.18,16.48-22.32,5.85l-7.44-5.05
	c0,0-12.49,20.46-24.18-4.25l-2.39-2.39c0,0-7.11,10.32-16.22,13.07c-2.64,0.79-5.38-1.23-5.32-3.99c0.02-0.95,0.18-2.1,0.54-3.5
	c0,0-6.02,9.03-14.3,8.74c-3.3-0.12-5.73-3.18-5.31-6.46l1.27-9.98c0,0-24.18,11.96-33.22-0.27c0,0-1.59-3.72,1.59-4.78
	c3.19-1.06,5.85,1.59,43.85-29.76S136.64,388.09,136.64,388.09z"/>
<path class="st1" d="M44.03,451.74c0,0,12.96,9.77,30.69-4.78l17.94-21.33c0,0,11.16-14.55-10.96,1.59S50.8,448.35,44.03,451.74z"/>
<path class="st1" d="M78.44,448.95c0,0-4.63,15.5,1.81,16.27c1.35,0.16,2.68-0.43,3.65-1.39l14.34-14.22c0,0,9.3-28.04,0.27-26.31
	C89.47,425.03,78.44,448.95,78.44,448.95z"/>
<path class="st1" d="M104.75,424.5c0,0,3.59,20.99-7.04,30.43c0,0-3.72,11.83,1.33,9.57s11.03-7.71,13.29-14.08
	s2.92-26.31,2.92-26.31L104.75,424.5z"/>
<path class="st1" d="M118.97,424.66l-2.23,31.71c-0.23,3.31,1.04,6.57,3.53,8.76c2.81,2.47,6.77,4.12,10.56-0.69
	c2.61-3.31,3.32-7.74,2.27-11.82l-7.22-27.97H118.97z"/>
<path class="st1" d="M138.9,424.23l19.8,33.22c0,0,6.64,12.36-8.77,10.5c-15.41-1.86-18.47-44.25-18.47-44.25L138.9,424.23z"/>
<path class="st1" d="M152.62,424.81L152.62,424.81c1.08,0.06,2.08,0.56,2.76,1.39l17.51,21.24c0.09,0.11,0.18,0.21,0.29,0.31
	c1.55,1.51,15.11,15.11,1.06,14.48c-11.24-0.5-21.2-21.78-25.39-32.16C147.8,427.47,149.82,424.66,152.62,424.81z"/>
<path class="st1" d="M162.55,425.56l21.83,27.86c1.75,2.23,4.14,3.91,6.88,4.63c3.48,0.92,7.52,0.84,6.8-4.84
	c-0.28-2.22-1.17-4.32-2.4-6.19C191.5,440.68,178.71,423.61,162.55,425.56z"/>
<path class="st1" d="M212.64,287.11c0,0,9.1-13.69,37.47-2.39l8.64-2.79l52.78-22.27c0,0,26.88-28.35,2.76-21.17l-63.78,38.27
	L282,257.01c0,0,41.85-40.06,18.93-38.07l-32.09,31.89l-33.75,26.57c0,0,29.56-27.37,41.32-41.32c11.76-13.95,10.76-27.7,10.76-27.7
	s0.4-15.75-11.16,5.18c0,0-8.17,20.13-21.72,32.89l-28.37,29.76l13.53-15.2c6.41-7.2,11.22-15.73,13.63-25.06
	c0.33-1.29,0.63-2.61,0.87-3.95c0.5-2.82,1.04-5.62,1.81-8.38c2.76-9.94,8.12-32.88-4.76-21.99l-2.08,3.36l-2.19,9.37l-2.79,9.37
	l-9.37,20.73l-7.37,13.95l-9.97,16.54l7.37-14.55l3.22-16.1c0.78-3.88,1.32-7.8,1.63-11.75l1.52-19.19c0,0,2.99-30.29-9.57-8.37
	c0,0-9.37,34.28-10.56,72.35c0,0,1.51-52.05-8.13-48.28c-0.51,0.2-0.84,0.7-0.86,1.24l-0.24,10.74c-0.08,3.68,0.08,7.36,0.52,11.02
	c0.71,5.89,1.66,15.71,1.13,22.3C202.48,284.32,200.09,303.85,212.64,287.11z"/>
<circle class="st2" cx="165.3" cy="432.57" r="145.89"/>
<path class="st3" d="M78.31,621.95c0-1.2,44.65-107.23,44.65-107.23l15.15,30.29l37.87-64.58l45.04,125.96l-49.43-82.91
	l-26.31,52.22l-15.55-28.3L78.31,621.95z"/>
<line class="st3" x1="117.24" y1="507.68" x2="67.28" y2="638.16"/>
<line class="st3" x1="138.77" y1="535.58" x2="173.31" y2="476.58"/>
<line class="st3" x1="171.72" y1="530.53" x2="198.03" y2="574.91"/>
<line class="st3" x1="128.67" y1="554.98" x2="136.11" y2="570.39"/>
<text transform="matrix(0.7836 0 0 1 228.7807 604.2448)" class="st4 st5">agpie</text>
<g>
	<text transform="matrix(0.7836 0 0 1 328.4865 650.8745)" class="st4 st6">TOURS</text>
</g>
</svg>
